# xmcd
#
# Track frame offsets: 
#        150
#        14718
#        33980
#        48206
#        63568
#        76054
#        98534
#        115186
#        132677
#        149891
#        166359
#        183776
#
# Disc length: 2650 seconds
#
# Revision: 0
# Processed by: cddbd v1.5.2PL0 Copyright (c) Steve Scherf et al.
# Submitted via: ExactAudioCopy v0.99pb4
#
DISCID=a30a580c
DTITLE=Genevieve Spalding - Gone To Kentucky 
DYEAR=2006
DGENRE=Country
TTITLE0=Gone To Kentucky
TTITLE1=What Makes A Woman
TTITLE2=Troublemaker
TTITLE3=If He Only Knew
TTITLE4=Go, If You're Going
TTITLE5=Last Time For Everything
TTITLE6=Dreamers Do
TTITLE7=Underappreciated 
TTITLE8=I Like Who I Am With You
TTITLE9=In God's Hands
TTITLE10=The Great Unknown
TTITLE11=I've Seen You In My Dreams
EXTD=
EXTT0=
EXTT1=
EXTT2=
EXTT3=
EXTT4=
EXTT5=
EXTT6=
EXTT7=
EXTT8=
EXTT9=
EXTT10=
EXTT11=
PLAYORDER=
